<svg width="126" height="35" viewBox="0 0 126 35" fill="none" xmlns="http://www.w3.org/2000/svg">
<path d="M15.54 15.336C15.092 14.5147 14.476 13.8893 13.692 13.46C12.908 13.0307 11.9933 12.816 10.948 12.816C9.79067 12.816 8.764 13.0773 7.868 13.6C6.972 14.1227 6.272 14.8693 5.768 15.84C5.264 16.8107 5.012 17.9307 5.012 19.2C5.012 20.5067 5.264 21.6453 5.768 22.616C6.29067 23.5867 7.00933 24.3333 7.924 24.856C8.83867 25.3787 9.90267 25.64 11.116 25.64C12.6093 25.64 13.832 25.248 14.784 24.464C15.736 23.6613 16.3613 22.5507 16.66 21.132H9.94V18.136H20.524V21.552C20.2627 22.9147 19.7027 24.1747 18.844 25.332C17.9853 26.4893 16.8747 27.4227 15.512 28.132C14.168 28.8227 12.656 29.168 10.976 29.168C9.09067 29.168 7.38267 28.748 5.852 27.908C4.34 27.0493 3.14533 25.864 2.268 24.352C1.40933 22.84 0.98 21.1227 0.98 19.2C0.98 17.2773 1.40933 15.56 2.268 14.048C3.14533 12.5173 4.34 11.332 5.852 10.492C7.38267 9.63333 9.08133 9.204 10.948 9.204C13.1507 9.204 15.064 9.74533 16.688 10.828C18.312 11.892 19.432 13.3947 20.048 15.336H15.54ZM27.3442 15.896C27.8482 15.0747 28.5015 14.4307 29.3042 13.964C30.1255 13.4973 31.0589 13.264 32.1042 13.264V17.38H31.0682C29.8362 17.38 28.9029 17.6693 28.2682 18.248C27.6522 18.8267 27.3442 19.8347 27.3442 21.272V29H23.4242V13.488H27.3442V15.896ZM41.6325 29.252C40.1392 29.252 38.7952 28.9253 37.6005 28.272C36.4058 27.6 35.4632 26.6573 34.7725 25.444C34.1005 24.2307 33.7645 22.8307 33.7645 21.244C33.7645 19.6573 34.1098 18.2573 34.8005 17.044C35.5098 15.8307 36.4712 14.8973 37.6845 14.244C38.8978 13.572 40.2512 13.236 41.7445 13.236C43.2378 13.236 44.5912 13.572 45.8045 14.244C47.0178 14.8973 47.9698 15.8307 48.6605 17.044C49.3698 18.2573 49.7245 19.6573 49.7245 21.244C49.7245 22.8307 49.3605 24.2307 48.6325 25.444C47.9232 26.6573 46.9525 27.6 45.7205 28.272C44.5072 28.9253 43.1445 29.252 41.6325 29.252ZM41.6325 25.836C42.3418 25.836 43.0045 25.668 43.6205 25.332C44.2552 24.9773 44.7592 24.4547 45.1325 23.764C45.5058 23.0733 45.6925 22.2333 45.6925 21.244C45.6925 19.7693 45.3005 18.64 44.5165 17.856C43.7512 17.0533 42.8085 16.652 41.6885 16.652C40.5685 16.652 39.6258 17.0533 38.8605 17.856C38.1138 18.64 37.7405 19.7693 37.7405 21.244C37.7405 22.7187 38.1045 23.8573 38.8325 24.66C39.5792 25.444 40.5125 25.836 41.6325 25.836ZM74.104 13.488L69.568 29H65.34L62.512 18.164L59.684 29H55.428L50.864 13.488H54.84L57.584 25.304L60.552 13.488H64.696L67.608 25.276L70.352 13.488H74.104ZM80.789 16.708V24.212C80.789 24.7347 80.9103 25.1173 81.153 25.36C81.4143 25.584 81.8436 25.696 82.441 25.696H84.261V29H81.797C78.493 29 76.841 27.3947 76.841 24.184V16.708H74.993V13.488H76.841V9.652H80.789V13.488H84.261V16.708H80.789ZM95.8164 13.264C96.9924 13.264 98.0378 13.5253 98.9524 14.048C99.8671 14.552 100.576 15.308 101.08 16.316C101.603 17.3053 101.864 18.5 101.864 19.9V29H97.9444V20.432C97.9444 19.2 97.6364 18.2573 97.0204 17.604C96.4044 16.932 95.5644 16.596 94.5004 16.596C93.4178 16.596 92.5591 16.932 91.9244 17.604C91.3084 18.2573 91.0004 19.2 91.0004 20.432V29H87.0804V8.28H91.0004V15.42C91.5044 14.748 92.1764 14.2253 93.0164 13.852C93.8564 13.46 94.7898 13.264 95.8164 13.264Z" fill="white"/>
<path d="M112.417 9.57772L122.776 3.00002" stroke="#4891FF" stroke-width="6" stroke-linecap="round"/>
</svg>
